<?xml version="1.0" encoding="UTF-8" standalone="no"?>
<!-- Created with Inkscape (http://www.inkscape.org/) -->

<svg
   width="210mm"
   height="297mm"
   viewBox="0 0 210 297"
   version="1.1"
   id="svg1"
   sodipodi:docname="JStarRqlapf.svg"
   inkscape:version="1.3.1 (91b66b0783, 2023-11-16)"
   inkscape:export-filename="JStarRqlapf.png"
   inkscape:export-xdpi="254.27"
   inkscape:export-ydpi="254.27"
   xmlns:inkscape="http://www.inkscape.org/namespaces/inkscape"
   xmlns:sodipodi="http://sodipodi.sourceforge.net/DTD/sodipodi-0.dtd"
   xmlns="http://www.w3.org/2000/svg"
   xmlns:svg="http://www.w3.org/2000/svg">
  <sodipodi:namedview
     id="namedview1"
     pagecolor="#505050"
     bordercolor="#eeeeee"
     borderopacity="1"
     inkscape:showpageshadow="0"
     inkscape:pageopacity="0"
     inkscape:pagecheckerboard="0"
     inkscape:deskcolor="#505050"
     inkscape:document-units="mm"
     inkscape:zoom="2.9045061"
     inkscape:cx="228.95459"
     inkscape:cy="423.65206"
     inkscape:window-width="2560"
     inkscape:window-height="1017"
     inkscape:window-x="1912"
     inkscape:window-y="1072"
     inkscape:window-maximized="1"
     inkscape:current-layer="layer1"
     inkscape:export-bgcolor="#00000000" />
  <defs
     id="defs1" />
  <g
     inkscape:label="Layer 1"
     inkscape:groupmode="layer"
     id="layer1">
    <path
       id="rect1"
       style="fill:none;stroke:#000000;stroke-width:0.499999"
       d="m 48.475032,85.373932 h 38.345919 c 3.406998,0 6.149817,2.742818 6.149817,6.149817 v 38.345921 c 0,3.407 -2.742819,6.14982 -6.149817,6.14982 H 48.475032 c -3.406999,0 -6.149818,-2.74282 -6.149818,-6.14982 V 91.523749 c 0,-3.406999 2.742819,-6.149817 6.149818,-6.149817 z" />
    <path
       id="path1"
       style="fill:none;stroke:#000000;stroke-width:0.499999"
       inkscape:transform-center-x="-0.0039301758"
       inkscape:transform-center-y="-2.6336045"
       transform="matrix(0.95222158,0,0,0.99663219,25.575098,26.068245)"
       d="M 60.41291,109.9732 44.127305,101.40133 27.833446,109.9575 30.953248,91.820115 17.780771,78.967735 35.99452,76.330083 44.14734,59.830709 52.284254,76.337934 70.495451,78.99314 57.310592,91.832818 Z" />
    <path
       d="m 50.251835,152.41353 q 4.224828,0 7.379366,-2.5349 3.154539,-2.47857 5.013463,-6.59073 1.858924,-4.11217 3.210869,-9.18196 1.351945,-5.0698 2.253242,-10.47758 0.957628,-5.46411 1.858924,-10.25225 2.027918,-11.09721 5.464112,-14.139089 -7.942677,1.239279 -12.111175,7.773689 -2.591228,3.9995 -2.591228,7.83001 0,4.67548 2.872884,5.06979 0.225324,0.0563 0.450648,0.0563 0,0.39432 -0.337986,0.73231 -0.619642,0.61964 -1.689932,0.61964 -3.323531,0 -4.224828,-3.54886 -0.337986,-1.18295 -0.337986,-2.47856 0,-3.09821 1.858924,-6.64706 3.379863,-6.47807 10.533905,-9.181965 4.055835,-1.520938 8.843974,-1.520938 0.619642,0 0.957628,0.281655 0.337986,0.281656 0.394317,0.844966 -3.098207,0 -4.675476,6.872392 -0.675973,3.21086 -1.295614,7.32303 -0.619642,4.05584 -1.351945,8.61865 -0.732304,4.50648 -1.689932,9.0693 -0.957627,4.50648 -2.70389,8.61865 -1.689931,4.05583 -3.999504,7.21037 -2.253241,3.21087 -5.858428,5.06979 -3.605187,1.85893 -7.435698,1.85893 -3.830511,0 -6.252746,-0.95763 -2.422234,-0.95763 -3.886841,-2.59123 -3.21087,-3.66151 -3.21087,-8.44965 0,-5.23879 2.027918,-8.78765 4.112166,-7.2667 10.759229,-7.2667 1.182952,0 1.858924,0.61964 0.732304,0.61964 0.844966,1.18295 l 0.112662,0.61964 q -1.013959,-0.11266 -1.408276,-0.11266 -6.083753,0 -9.407284,6.14009 -2.084249,3.77418 -2.084249,7.54836 0,2.30957 0.732304,4.61914 2.084248,6.14009 9.125629,6.14009 z"
       id="text19"
       style="font-size:70.4138px;font-family:'Euphoria Script';-inkscape-font-specification:'Euphoria Script';fill:#f3dcf7;stroke:#000000;stroke-width:0.532141"
       transform="scale(1.1319115,0.8834613)"
       aria-label="J" />
    <path
       style="fill:#ffffff;fill-opacity:1;stroke:#000000;stroke-width:0.237218;stroke-dasharray:none;stroke-opacity:1"
       d="m 201.17674,506.50188 c -0.98107,-0.21546 -1.85848,-0.4692 -1.94981,-0.56388 -0.0913,-0.0947 2.11471,-14.03853 4.90231,-30.98634 l 5.06835,-30.81418 -4.84001,-5.09932 c -2.662,-2.80462 -4.88163,-5.21472 -4.9325,-5.35578 -0.23363,-0.64787 6.43211,-3.14282 11.32111,-4.23744 3.15678,-0.70678 4.47348,-0.80063 11.23242,-0.80063 6.64401,0 7.63629,-0.0683 7.50394,-0.51644 -0.0839,-0.28404 -0.34153,-1.28681 -0.57254,-2.22837 -0.78122,-3.18423 -4.83806,-6.24321 -9.42347,-7.10559 -2.49566,-0.46936 -9.42294,-0.18922 -13.80517,0.55828 -4.12581,0.70377 -9.62297,2.33756 -12.89022,3.83106 l -2.68231,1.22611 -9.40599,-9.58848 c -19.04726,-19.41678 -17.70495,-17.96306 -16.78313,-18.17615 0.45337,-0.10481 14.76815,-2.29474 31.81063,-4.86652 17.04249,-2.57178 31.0856,-4.77984 31.20692,-4.90678 0.12132,-0.12696 6.53476,-13.63241 14.25209,-30.01213 7.71733,-16.37972 14.1252,-29.8854 14.23971,-30.01261 0.1623,-0.18031 5.01596,9.8659 9.60933,19.8896 l 0.48873,1.06651 -3.34919,3.23715 c -12.38959,11.97516 -19.06828,26.2754 -17.39803,37.25223 0.8654,5.68747 2.86677,9.97753 6.01391,12.89122 3.78461,3.50389 8.98642,5.14116 15.34437,4.82966 5.1324,-0.25146 8.5693,-2.17873 9.08397,-5.09392 l 0.21445,-1.21464 -2.91006,-0.39682 c -3.56344,-0.48591 -5.55313,-1.33092 -7.33907,-3.11686 -2.70976,-2.70976 -3.9819,-6.76762 -3.96261,-12.63993 0.018,-5.49633 1.11887,-9.84824 3.87889,-15.33444 1.04682,-2.0808 3.74632,-6.33627 5.21143,-8.21526 l 0.63742,-0.81748 2.00823,4.2604 c 1.10453,2.34323 4.06192,8.61907 6.57196,13.94634 l 4.56373,9.68593 4.70646,0.7324 c 2.58856,0.40283 4.93886,0.73321 5.2229,0.73419 1.5471,0.005 1.53283,0.13197 -1.5364,13.62764 -6.60208,29.02993 -9.67687,39.88396 -15.36479,54.23794 -3.57702,9.02692 -10.51087,22.69934 -13.32814,26.28092 l -0.62144,0.79004 -3.59678,-2.0203 c -1.97823,-1.11117 -3.8031,-2.02288 -4.05528,-2.02602 -0.25217,-0.003 -11.73549,6.19155 -25.51848,13.76598 -17.77166,9.76641 -25.34852,13.76047 -26.05204,13.73307 -0.54562,-0.0212 -1.79473,-0.21491 -2.7758,-0.43036 z"
       id="path27"
       transform="scale(0.26458333)" />
    <path
       style="fill:#ffffff;fill-opacity:1;stroke:#000000;stroke-width:0.237218;stroke-dasharray:none;stroke-opacity:1"
       d="m 304.1729,441.03884 c 1.70381,-5.07312 7.18428,-28.33572 10.03766,-42.60621 0.7154,-3.57791 1.45589,-6.45549 1.66119,-6.45549 0.29454,0 25.55203,3.81921 30.92749,4.67657 l 1.3016,0.2076 -16.80552,17.09653 c -25.94385,26.39307 -27.36943,27.81648 -27.12242,27.081 z"
       id="path28"
       transform="scale(0.26458333)" />
    <path
       style="fill:#ffffff;fill-opacity:1;stroke:#ffffff;stroke-width:0.237;stroke-dasharray:none;stroke-opacity:1"
       d="m 294.54233,500.7377 c -9.6574,-5.31745 -17.6624,-9.76994 -17.78888,-9.89441 -0.12648,-0.12447 1.08864,-1.77563 2.70026,-3.66924 8.34112,-9.80058 16.42143,-23.51851 21.15695,-35.91812 1.22293,-3.20213 1.53382,-3.75589 1.73966,-3.09863 0.13784,0.44015 2.42848,14.20186 5.0903,30.58158 2.66182,16.37972 4.9279,30.20738 5.03573,30.72812 0.10783,0.52074 0.0675,0.94501 -0.0895,0.94281 -0.15707,-0.002 -8.18709,-4.35465 -17.8445,-9.67211 z"
       id="path29"
       transform="scale(0.26458333)" />
    <path
       style="fill:#80418b;fill-opacity:1;stroke:#80418b;stroke-width:0.344293;stroke-dasharray:none;stroke-opacity:1"
       d="m 332.07023,392.2166 c -8.7106,-1.33831 -15.89916,-2.47908 -15.97456,-2.53505 -0.3139,-0.23296 4.15818,-21.70506 6.33407,-30.4122 3.00147,-12.01086 6.1201,-18.81632 10.63895,-23.21623 2.52467,-2.45821 4.74715,-3.56721 8.09875,-4.04119 2.58282,-0.36526 2.77822,-0.44906 2.59986,-1.11512 -0.37907,-1.41561 2.91507,2.67555 4.11868,5.11519 2.28482,4.63121 2.24888,4.10824 2.25452,32.81147 l 0.005,25.90802 -1.11895,-0.0408 c -0.61542,-0.0224 -8.24581,-1.13578 -16.95641,-2.47409 z"
       id="path35"
       transform="scale(0.26458333)" />
    <path
       style="fill:#80418b;fill-opacity:1;stroke:#80418b;stroke-width:0.344293;stroke-dasharray:none;stroke-opacity:1"
       d="m 309.62774,478.86205 -5.5585,-34.01108 14.54944,-14.81704 c 8.00219,-8.14937 18.36418,-18.69033 23.02665,-23.42435 l 8.47722,-8.60731 -0.0745,48.7174 -0.0746,48.71741 -0.76554,2.2379 c -2.22853,6.51465 -7.11715,11.50196 -13.78373,14.06201 -2.24428,0.86183 -2.61743,0.89537 -11.27949,1.01373 l -8.95843,0.12242 z"
       id="path36"
       transform="scale(0.26458333)" />
    <path
       style="fill:#80418b;fill-opacity:1;stroke:#80418b;stroke-width:0.344293;stroke-dasharray:none;stroke-opacity:1"
       d="m 239.45551,511.63272 c 13.26041,-3.45349 24.42983,-9.18167 32.64666,-16.74267 l 2.69319,-2.47824 1.26617,0.70331 c 0.6964,0.38683 8.93529,4.92171 18.30866,10.07751 9.37336,5.1558 17.10704,9.43202 17.18594,9.50271 0.0789,0.0707 -17.11852,0.12278 -38.21648,0.11578 l -38.35994,-0.0127 z"
       id="path37"
       transform="scale(0.26458333)" />
    <path
       style="fill:#80418b;fill-opacity:1;stroke:#80418b;stroke-width:0.344293;stroke-dasharray:none;stroke-opacity:1"
       d="m 211.14628,507.68351 -2.48729,-0.19619 23.39297,-12.85073 23.39298,-12.85073 3.10533,1.66122 c 1.70794,0.91367 3.10686,1.77643 3.10873,1.91725 0.002,0.14082 -1.05686,1.45774 -2.35272,2.92649 -8.14954,9.23684 -19.90936,16.07226 -31.49894,18.30882 -3.4353,0.66294 -11.42267,1.47034 -13.27696,1.34209 -0.49325,-0.0341 -2.01609,-0.15031 -3.3841,-0.25822 z"
       id="path38"
       transform="scale(0.26458333)" />
    <path
       style="fill:#80418b;fill-opacity:1;stroke:#80418b;stroke-width:0.344293;stroke-dasharray:none;stroke-opacity:1"
       d="m 193.34282,504.04844 c -8.67412,-3.78666 -14.43818,-10.25136 -17.34789,-19.45658 -2.11382,-6.68734 -2.3393,-14.19198 -0.62414,-20.77366 2.51091,-9.6353 10.93366,-21.69866 19.11108,-27.37159 l 2.53874,-1.7612 4.86356,5.04915 c 4.32102,4.48593 4.85289,5.16674 4.76801,6.10321 -0.10021,1.1056 -9.25858,57.29376 -9.55752,58.63699 -0.2263,1.01685 -0.52325,0.98311 -3.75184,-0.42632 z"
       id="path39"
       transform="scale(0.26458333)" />
    <path
       style="fill:#80418b;fill-opacity:1;stroke:#80418b;stroke-width:0.344293;stroke-dasharray:none;stroke-opacity:1"
       d="m 161.16,429.16581 -0.0311,-31.15342 1.3493,1.37211 c 0.74211,0.75466 6.78088,6.93835 13.4195,13.74154 l 12.0702,12.36944 -3.0062,1.96717 c -9.96977,6.52393 -19.0724,17.86124 -22.23383,27.69219 -0.48715,1.51489 -1.03224,3.2966 -1.2113,3.95936 -0.21163,0.78331 -0.33643,-9.69761 -0.35661,-29.94839 z"
       id="path40"
       transform="scale(0.26458333)" />
    <path
       style="fill:#80418b;fill-opacity:1;stroke:#80418b;stroke-width:0.344293;stroke-dasharray:none;stroke-opacity:1"
       d="m 289.74231,385.73502 c -2.26129,-0.36353 -4.14238,-0.69581 -4.1802,-0.73842 -0.22713,-0.2558 -12.88236,-27.3353 -12.88236,-27.56549 0,-0.57101 3.60437,-4.40134 6.59636,-7.00991 10.0781,-8.78659 22.48235,-14.39692 37.98002,-17.17802 l 1.36766,-0.24543 -2.00098,2.20451 c -7.48508,8.24642 -13.34599,21.7703 -18.33809,42.31459 -1.03529,4.26063 -1.96271,8.01772 -2.06091,8.3491 -0.22383,0.75528 -1.07605,0.73806 -6.4815,-0.13093 z"
       id="path42"
       transform="scale(0.26458333)" />
    <path
       style="fill:#80418b;fill-opacity:1;stroke:#80418b;stroke-width:0.344293;stroke-dasharray:none;stroke-opacity:1"
       d="m 262.17883,335.42423 c -2.84042,-6.0406 -5.21714,-11.1289 -5.28161,-11.30734 -0.073,-0.20214 14.13683,-0.2892 37.70004,-0.23098 l 37.81726,0.0934 2.41005,0.84606 2.41005,0.84606 -3.95937,0.26022 c -10.75509,0.70683 -14.30267,1.02111 -18.4305,1.63275 -17.37572,2.57465 -33.57658,8.7376 -45.26363,17.21868 l -2.2379,1.62401 z"
       id="path43"
       transform="scale(0.26458333)" />
    <path
       style="fill:#80418b;fill-opacity:1;stroke:#80418b;stroke-width:0.344293;stroke-dasharray:none;stroke-opacity:1"
       d="m 161.12894,368.96461 c 0,-24.51794 0.0329,-25.89554 0.67895,-28.42152 1.58431,-6.19458 5.85674,-11.55394 11.38295,-14.27881 5.19904,-2.56355 3.45917,-2.47077 44.49037,-2.37256 l 36.61238,0.0876 -14.35535,30.40559 c -7.89544,16.72308 -14.4137,30.46395 -14.48503,30.53528 -0.1092,0.1092 -63.51384,9.81127 -64.11826,9.81127 -0.11331,0 -0.20601,-11.5951 -0.20601,-25.76688 z"
       id="path44"
       transform="scale(0.26458333)" />
    <path
       style="fill:#80418b;fill-opacity:1;stroke:#80418b;stroke-width:0.344293;stroke-dasharray:none;stroke-opacity:1"
       d="m 177.65499,512.28122 c -3.23199,-0.84881 -6.63408,-2.7448 -9.21823,-5.13733 -2.98066,-2.75963 -4.63726,-5.2051 -6.01904,-8.8853 -1.0133,-2.69879 -1.06479,-3.09106 -1.18372,-9.01878 l -0.12435,-6.19727 0.99514,2.46739 c 2.41539,5.98886 5.38617,10.26673 10.52771,15.15972 5.34055,5.08237 11.15943,8.24946 19.3919,10.55458 2.12767,0.59575 3.87065,1.19938 3.87329,1.3414 0.003,0.14202 -3.67482,0.24803 -8.17214,0.23556 -5.96259,-0.0165 -8.68975,-0.15733 -10.07056,-0.51997 z"
       id="path45"
       transform="scale(0.26458333)" />
  </g>
</svg>
