<?xml version="1.0" encoding="UTF-8"?>
<svg width="100%" height="100%" version="1.1" viewBox="0 0 304.27 105.83" xmlns="http://www.w3.org/2000/svg">
 <g transform="translate(63.63 -67.538)">
  <path d="m-51.104 140.61q3.6789 0 6.4258-1.6877 2.7469-1.6502 4.3656-4.3879 1.6187-2.7378 2.7959-6.1131 1.1772-3.3753 1.9621-6.9757 0.83388-3.6378 1.6187-6.8256 1.7659-7.3882 4.758-9.4134-6.9163 0.82509-10.546 5.1755-2.2564 2.6628-2.2564 5.213 0 3.1128 2.5016 3.3753 0.19621 0.0376 0.39241 0.0376 0 0.26253-0.29431 0.48755-0.53956 0.41254-1.4716 0.41254-2.894 0-3.6789-2.3627-0.29431-0.78758-0.29431-1.6502 0-2.0627 1.6187-4.4254 2.9431-4.3129 9.1727-6.1131 3.5317-1.0126 7.7011-1.0126 0.53956 0 0.83387 0.18751 0.29431 0.18753 0.34337 0.56255-2.6978 0-4.0713 4.5754-0.58862 2.1377-1.1282 4.8755-0.53958 2.7002-1.1772 5.738-0.63768 3.0003-1.4716 6.0381-0.83389 3.0003-2.3545 5.738-1.4716 2.7003-3.4827 4.8005-1.9621 2.1377-5.1014 3.3753-3.1393 1.2376-6.4748 1.2376t-5.4447-0.63755q-2.1092-0.63756-3.3846-1.7252-2.7959-2.4378-2.7959-5.6256 0-3.4878 1.7659-5.8506 3.5808-4.838 9.3689-4.838 1.0301 0 1.6187 0.41254 0.63768 0.41252 0.73578 0.78757l0.09807 0.41254q-0.88292-0.075-1.2263-0.075-5.2976 0-8.1916 4.0879-1.8149 2.5127-1.8149 5.0255 0 1.5376 0.63768 3.0753 1.8149 4.0879 7.9464 4.0879zm27.224-6.1506q0 2.7753 3.826 3.3378 0.73578 0.11251 1.6678 0.11251 6.1315 0 9.7122-3.0378 3.5808-3.0003 3.5808-7.5757 0-1.8002-0.88293-3.3003-0.83388-1.5376-2.1092-2.5127-1.2753-1.0126-2.7959-2.0252-1.4716-1.0126-2.7469-1.8377-1.2753-0.82509-2.1583-1.9877-0.83388-1.1626-0.83388-2.4752 0-3.4503 4.0222-6.3381 4.0713-2.9253 8.7312-2.9253 0.93197 0 1.3734 0.52505t0.44147 1.0501l-0.04909 0.48754q-0.34335-0.15-1.7168-0.15-3.1393 0-6.0824 2.2502-2.9431 2.2502-2.9431 5.213 0 1.2001 0.83388 2.3627 0.88293 1.1251 2.1583 1.9877 1.2753 0.86258 2.7469 1.9502 1.4716 1.0501 2.7469 2.1002 1.2753 1.0126 2.1092 2.5127 0.88293 1.4626 0.88293 3.1128 0 4.538-4.9052 8.0633-4.9052 3.5253-12.116 3.5253-6.0824 0-7.7011-3.0003-1.2754-2.4752 0.98103-5.4755 2.2564-3.0003 6.5239-4.0504 1.5697-0.37503 2.7959-0.37503 1.2263 0 1.6678 0.33753 0.49051 0.30003 0.63766 0.97509-4.6109 0-7.8973 2.8503-2.5016 2.1377-2.5016 4.3129zm22.76-20.739q0 0.18752-0.49052 0.18752-0.44147 0-0.83388-0.15-0.39241-0.15003-0.39241-0.41255 0-3.8254 1.1282-6.1506 1.1282-2.3252 2.9921-2.3252 0.49052 0 0.83389 0.26252 0.34335 0.26253 0.34335 0.67508-2.2073 1.6876-3.1884 5.063-0.39241 1.3501-0.39241 2.8503zm7.3087 2.9628q-1.913 0-1.913-1.2001 0-0.45004 0.49052-0.56255 0.04909-0.0375 0.14716-0.0375 0.29431 0.26252 1.0791 0.26252 0.83388 0 2.5997-0.075 2.3054-4.763 4.4147-4.763 0.83388 0 0.83388 0.71256-0.78483 1.5002-1.7659 3.8629 4.8561-0.41254 6.3277-0.41254 0.39241 0 0.39241 0.30003 0 0.60005-1.0301 0.60005-0.53957 0-6.2296 0.78757-3.8751 9.3759-3.8751 15.189t3.0412 5.8131q1.2263 0 2.3054-0.82508 1.0791-0.78758 1.5206-1.5752 0.19621-0.41255 0.83389-0.22502 0.29431 0.075 0.1962 0.22502-0.29431 0.48755-0.73578 1.1251-0.44146 0.63757-1.7168 1.5752-1.2753 0.9376-2.5997 0.9376-5.8372 0-5.8372-7.7632 0-6.5631 3.1884-14.026-0.68672 0.075-1.6678 0.075zm15.402 16.239q-4.0222 0-4.0222-4.838 0-2.8878 1.864-6.3381 2.5997-4.838 6.8182-6.6006 1.8149-0.75006 3.3846-0.75006t2.4526 0.52504q0.93199 0.52505 1.1772 1.0501l0.29431 0.48754q-0.14716 0.63757-0.83388 0.63757-0.78483 0-0.93199-0.26252-0.09807-0.30003-0.24526-0.48756-0.14716-0.22502-0.68673-0.56255-0.53956-0.37503-1.2263-0.37503-3.1884 0-5.7881 4.3879-2.9431 5.063-2.9431 9.5259 0 2.2502 1.1772 2.2502 0.93198 0 2.5997-1.5752 1.7168-1.6126 3.5808-4.0129 3.2374-4.1254 5.2485-7.1632 1.6678-2.7003 3.4336-2.7003 0.93197 0 0.93197 0.86259-0.44146 0.71257-1.1282 2.0252-0.68672 1.3126-1.8149 5.213-1.1282 3.9004-1.1282 7.7632 0 3.8629 1.5206 3.8629 0.58862 0 1.0791-0.41254 0.49051-0.37503 0.88292-1.1626 0.14716-0.41254 0.68673-0.41254 0.1962 0 0.29431 0.11251 0.09807 0.11252 0 0.37504t-0.34337 0.71257q-0.24526 0.48754-1.0791 1.2751-0.78482 0.78757-1.6678 0.78757-2.0602 0-3.1884-2.0627-1.0791-2.0627-1.0791-4.8755 0-2.8128 0.53957-5.4005h-0.49051q-6.2296 8.1383-9.3689 8.1383zm34.925-10.764q-1.864 0-1.864-3.1128 0-1.7627 0.88293-3.3003-3.3355 2.2127-7.4559 8.2508-4.1203 6.0006-4.1203 7.8383 0 0.45004-0.78483 0.45004-1.4225 0-1.4225-2.9628 0-5.588 1.4716-10.126 1.4716-4.5379 3.5808-4.5379 0.93199 0 0.93199 0.82507-2.2564 5.4755-3.2374 11.214h0.34337q3.9732-7.0132 8.7803-10.951 2.7469-2.2502 5.0033-2.2502 0.49052 0 0.78483 0.22502 0.34336 0.22503 0.34336 0.56256-0.34336 0.26253-0.83389 0.78758-0.49051 0.52504-1.3244 2.5127-0.83388 1.9502-0.83388 4.2754 0 0.30003-0.24525 0.30003zm43.558 4.4254q0 5.0255 2.9431 5.0255 2.2564 0 4.5618-3.0378 2.3545-3.0378 3.8751-7.3882 1.5206-4.3879 1.6187-8.2883-2.4035-1.5001-4.3656-3.9004-1.9621-2.4002-1.9621-3.0753 0-0.71258 0.83388-1.3876 0.83387-0.71257 1.7659-0.71257 2.0602 0 3.5808 2.3252 1.5697 2.3252 1.7168 5.6255 1.8149 1.2001 3.1393 1.2001 1.3244 0 1.7168-0.63755 0.58862 0 0.58862 0.56255 0 1.0501-1.5206 1.3876l-0.88294 0.075q-1.5206 0-3.0412-0.67506-0.2943 4.2754-1.913 8.7008-1.6187 4.4254-4.2675 7.5007-2.6488 3.0378-5.4447 3.0378-3.9241 0-5.4448-2.9253-1.2263-2.3627-1.2263-5.663 0-0.86258 0.09807-1.7627-9.3689 13.089-14.961 13.089-2.4035 0-2.4035-1.6877 0-0.075 0-0.18752 5.8372-12.076 5.8372-20.364 0-6.4131-4.8071-6.4131-3.0412 0-4.2675 1.9877-0.39241 0.63757-0.39241 1.0876 0 0.45003 0.34337 0.45003-0.09807 0.52506-1.1282 0.52506-1.0301 0-1.0301-1.0126 0-1.5377 2.0111-2.7378 2.0602-1.2001 5.0523-1.2001 7.4068 0 7.4068 8.6633 0 3.2253-0.98103 7.2382-0.98103 3.9754-1.6678 5.7006-0.63766 1.6876-2.3545 5.8881-0.14716 0.41253 0.24526 0.41253 0.34335-0.0376 0.83387-0.33754 3.4336-2.2877 6.7691-6.3756 4.8071-6.0381 7.0634-11.064 2.4035-5.7006 4.6109-5.7006 0.98103 0 0.98103 0.78758-1.1772 2.8503-2.9431 10.426-0.58862 2.6628-0.58862 4.838zm9.6141-21.602q-0.1962 0.075-0.1962 0.33753t0.14716 0.78757q0.1962 0.52505 1.1772 1.8752 0.98103 1.3501 2.1583 2.4377-0.34336-2.3252-1.3734-3.8629-0.98103-1.5752-1.913-1.5752zm21.681 9.7509q3.7279 0 3.7279 3.3378 0 1.9127-1.6678 4.0129-2.845 3.4878-7.554 3.4878-0.73577 0-1.2263-0.18753-0.49052-0.1875-0.73578-0.56254 3.4827 0 6.3767-3.0753 2.3545-2.4752 2.3545-4.5379 0-1.5376-1.6187-1.5376-3.2374 0-6.0333 3.8629-2.9922 4.2004-2.9922 8.6258 0 3.7504 2.796 4.5004 0.53956 0.15003 1.3734 0.15003 0.83388 0 1.7658-0.30003 0.93198-0.33753 1.5697-0.78758 1.2753-0.90009 2.1092-1.9877 0.19621-0.30003 0.73577-0.30003 0.88294 0 0.83389 0.22502-0.14716 0.41253-1.1282 1.3876-0.93198 0.97509-1.7659 1.5752-0.78482 0.56255-2.1092 1.0126-1.2753 0.48755-2.5998 0.48755-5.1995 0-6.622-3.7504-0.44147-1.2751-0.44147-2.6253 0-2.5127 1.5206-5.4755 2.4035-4.5004 6.622-6.4881 2.3054-1.0501 4.709-1.0501zm13.44 23.665q-2.845 0-4.2184-2.2877-1.3244-2.2877-1.3244-6.8632 0-4.5754 1.7658-10.839 1.7659-6.2631 4.1203-10.388 2.4035-4.1254 4.1694-4.1254 0.83387 0 0.83387 0.75007-1.0301 1.8002-2.5997 5.438-1.5696 3.6003-2.6488 6.6756-1.0301 3.0753-1.913 7.2007-0.83388 4.1254-0.83388 7.0882 0 2.9253 0.73578 4.5004 0.78481 1.6126 2.1092 1.6126 1.1282 0 2.1583-0.82507 1.0301-0.78758 1.4716-1.5751 0.24527-0.41255 0.88294-0.22503 0.24525 0.075 0.0981 0.30003-0.0981 0.26252-0.39243 0.63756-0.24524 0.37503-0.93197 1.1626-1.4716 1.7627-3.4827 1.7627zm12.901 0q-2.845 0-4.2184-2.2877-1.3244-2.2877-1.3244-6.8632 0-4.5754 1.7659-10.839 1.7659-6.2631 4.1203-10.388 2.4035-4.1254 4.1694-4.1254 0.83387 0 0.83387 0.75007-1.0301 1.8002-2.5997 5.438-1.5697 3.6003-2.6488 6.6756-1.0301 3.0753-1.913 7.2007-0.83387 4.1254-0.83387 7.0882 0 2.9253 0.73578 4.5004 0.78481 1.6126 2.1092 1.6126 1.1282 0 2.1583-0.82507 1.0301-0.78758 1.4716-1.5751 0.24527-0.41255 0.88293-0.22503 0.24526 0.075 0.0981 0.30003-0.0981 0.26252-0.39242 0.63756-0.24525 0.37503-0.93198 1.1626-1.4716 1.7627-3.4827 1.7627zm9.467-11.551q6.3277-11.964 12.312-11.964 2.5016 0 2.5016 1.8377-0.34336 0.86259-0.88292 2.2877-0.53957 1.3876-1.4716 5.0255-0.88294 3.6378-0.88294 6.3756 0 3.9754 1.5206 3.9754 0.58862 0 1.1282-0.37503 0.53956-0.33754 0.73577-0.33754 0.68672 0 0 0.82508-0.24526 0.26254-0.93198 0.71257-0.63767 0.45004-1.3244 0.45004-1.864 0-2.9431-2.0627-1.0301-2.0252-1.0301-5.288 0-5.1755 2.1092-11.364 0.19621-0.48756-0.39241-0.48756-0.39243 0-0.88293 0.30004-2.3545 1.5752-4.9542 5.213-2.5997 3.6378-4.0713 6.5256-1.4716 2.8503-1.4716 3.3378 0 0.45004-0.68674 0.45004-1.5696 0-1.5696-2.9628 0-5.588 1.4716-10.126 1.5206-4.5379 3.6298-4.5379 0.88293 0 0.88293 0.82507-2.2564 5.588-3.2374 11.364zm31.05-12.114q3.7279 0 3.7279 3.3378 0 1.9127-1.6678 4.0129-2.845 3.4878-7.554 3.4878-0.73578 0-1.2263-0.18753-0.49052-0.1875-0.73578-0.56254 3.4827 0 6.3767-3.0753 2.3545-2.4752 2.3545-4.5379 0-1.5376-1.6187-1.5376-3.2374 0-6.0334 3.8629-2.9922 4.2004-2.9922 8.6258 0 3.7504 2.796 4.5004 0.53955 0.15003 1.3734 0.15003 0.83387 0 1.7659-0.30003 0.93197-0.33753 1.5696-0.78758 1.2753-0.90009 2.1092-1.9877 0.19621-0.30003 0.73578-0.30003 0.88293 0 0.83388 0.22502-0.14716 0.41253-1.1282 1.3876-0.93197 0.97509-1.7658 1.5752-0.78483 0.56255-2.1092 1.0126-1.2754 0.48755-2.5998 0.48755-5.1995 0-6.622-3.7504-0.44147-1.2751-0.44147-2.6253 0-2.5127 1.5206-5.4755 2.4035-4.5004 6.622-6.4881 2.3054-1.0501 4.709-1.0501zm9.7612 16.914q0 2.6252 2.2073 2.6252 2.0602 0 3.826-2.5878 1.8149-2.5878 1.8149-6.5256 0-1.9127-0.93198-5.4005-0.88294-3.4878-0.88294-4.5379 0-1.0876 0.0981-1.4251-0.63766 0.78758-3.6789 5.2505-3.0412 4.4254-5.3957 7.0132-0.19621 0.15001-0.53958 0.11251-0.34336-0.075-0.53957-0.22502-0.24524-0.18752-0.24524-0.26253 0-0.075 0.049-0.11251 2.3054-2.5502 5.3466-7.0132 3.0902-4.5004 5.1504-6.7132t4.0713-2.2127q1.0301 0 1.0301 0.67506 0 0.45004-0.83387 1.2001-2.6488 2.2877-2.6488 4.688 0 1.4251 1.4225 5.513 1.4225 4.0504 1.4225 5.8881 0 3.3003-2.4035 5.588-2.4035 2.3252-5.4447 2.3252-4.3166 0-4.3166-3.7879 0-2.8503 2.2564-5.9631 2.3054-3.1128 4.6109-4.2004 0.44145-0.22502 0.53955 0.26252 0.14716 0.48755-0.14715 0.63757-2.5997 1.1251-4.5128 4.8005-1.3244 2.5877-1.3244 4.3879zm18.591 0q0 2.6252 2.2073 2.6252 2.0602 0 3.826-2.5878 1.8149-2.5878 1.8149-6.5256 0-1.9127-0.93199-5.4005-0.88291-3.4878-0.88291-4.5379 0-1.0876 0.0981-1.4251-0.63768 0.78758-3.6789 5.2505-3.0412 4.4254-5.3957 7.0132-0.19622 0.15001-0.53957 0.11251-0.34337-0.075-0.53958-0.22502-0.24526-0.18752-0.24526-0.26253 0-0.075 0.049-0.11251 2.3054-2.5502 5.3466-7.0132 3.0903-4.5004 5.1504-6.7132t4.0713-2.2127q1.0301 0 1.0301 0.67506 0 0.45004-0.83388 1.2001-2.6488 2.2877-2.6488 4.688 0 1.4251 1.4225 5.513 1.4225 4.0504 1.4225 5.8881 0 3.3003-2.4035 5.588-2.4035 2.3252-5.4447 2.3252-4.3166 0-4.3166-3.7879 0-2.8503 2.2564-5.9631 2.3054-3.1128 4.6109-4.2004 0.44147-0.22502 0.53957 0.26252 0.14716 0.48755-0.14716 0.63757-2.5997 1.1251-4.5128 4.8005-1.3244 2.5877-1.3244 4.3879z" stroke-width="1.0052" style="white-space:pre" aria-label="JStar Wellness"/>
  <path d="m50.141 108.02-9.7739-4.3218-10.197 3.7058 2.3556-8.4426-7.7609-6.2699 11.23-0.89602 5.4009-7.5808 4.5847 7.8888 11.099 1.5847-8.3962 5.7716z" stroke-width="1.0052"/>
  <path d="m150.99 142.57a63.857 48.823 0 0 1-57.957 26.571 63.857 48.823 0 0 1-56.71-28.099" fill="none" stroke="#000" stroke-width="1.8997"/>
  <path d="m48.401 86.051a63.857 48.823 0 0 1 59.099-13.866 63.857 48.823 0 0 1 46.769 30.909" fill="none" stroke="#000" stroke-width="1.8997"/>
 </g>
</svg>
